<svg xmlns="http://www.w3.org/2000/svg" width="787" height="185" viewBox="0 0 787 185">
<g>
<path d="M 10.47 182.95 C10.11,182.37 10.54,180.91 11.42,179.70 C16.20,173.13 18.80,168.59 22.65,160.07 L 26.91 150.65 L 23.65 147.03 C15.29,137.78 8.97,125.75 6.40,114.20 C3.86,102.76 4.84,85.94 8.67,75.40 C16.00,55.19 32.25,36.95 57.91,20.11 C70.00,12.17 86.34,3.00 88.39,3.00 C89.77,3.00 89.90,4.17 89.37,11.75 C88.88,18.82 89.27,23.19 91.38,34.50 C99.01,75.29 98.84,88.23 90.45,105.67 C84.43,118.19 69.40,132.33 49.37,144.33 C43.50,147.84 39.00,149.04 39.00,147.08 C39.00,145.88 44.12,141.95 57.23,133.09 C75.96,120.42 86.17,107.09 89.66,90.71 C91.78,80.75 90.92,66.53 86.92,45.50 C84.98,35.29 83.65,25.05 83.59,19.87 C83.50,11.42 83.45,11.26 81.31,12.07 C72.26,15.51 57.63,24.66 47.00,33.52 C13.82,61.16 2.47,91.91 14.19,122.34 C17.71,131.46 28.05,147.51 29.23,145.69 C31.23,142.62 36.22,124.67 39.99,107.00 C47.11,73.61 52.17,58.89 59.53,50.14 C62.10,47.09 65.00,45.96 65.00,48.01 C65.00,48.57 63.01,53.18 60.58,58.26 C54.22,71.55 50.61,82.60 46.55,101.16 C44.58,110.15 42.04,121.08 40.89,125.45 C34.72,148.89 24.42,171.23 15.17,181.25 C12.41,184.23 11.47,184.57 10.47,182.95 ZM 384.16 180.97 C362.24,175.23 345.69,158.54 339.93,136.35 C337.28,126.13 337.07,107.74 339.49,97.00 C343.88,77.50 356.46,61.07 373.00,53.23 C377.67,51.02 383.98,48.60 387.00,47.86 C394.89,45.92 413.95,46.21 421.91,48.39 C444.59,54.58 459.30,70.35 465.12,94.70 C468.12,107.28 467.45,127.88 463.66,139.50 C460.10,150.42 454.73,159.06 446.98,166.36 C434.70,177.93 420.86,183.04 402.09,182.94 C395.01,182.91 389.07,182.25 384.16,180.97 ZM 423.23 172.25 C429.50,169.44 437.56,161.24 440.44,154.74 C444.45,145.67 445.48,138.66 445.40,121.00 C445.32,102.45 443.81,94.72 437.86,82.53 C433.59,73.77 423.87,63.28 416.28,59.23 C401.00,51.08 382.03,53.65 371.27,65.32 C362.66,74.67 359.06,85.25 358.29,103.54 C357.86,113.61 358.12,118.49 359.44,124.98 C364.34,149.16 378.59,167.39 397.50,173.66 C403.48,175.64 417.36,174.88 423.23,172.25 ZM 139.66 178.94 C140.24,178.36 142.22,177.13 144.07,176.19 C145.92,175.26 148.35,172.93 149.47,171.00 C151.41,167.66 151.52,165.59 151.84,125.00 C152.02,101.62 151.86,77.42 151.49,71.21 C150.87,61.03 150.54,59.61 148.20,56.82 C146.76,55.12 144.06,53.09 142.19,52.31 C140.32,51.52 138.96,50.71 139.18,50.49 C139.39,50.27 159.13,50.03 183.04,49.95 L 226.50 49.79 L 226.78 62.90 C227.00,73.26 226.78,76.00 225.73,76.00 C225.00,76.00 223.83,74.41 223.13,72.48 C222.43,70.54 220.24,67.39 218.26,65.47 C212.77,60.13 204.72,58.08 186.31,57.32 L 171.00 56.69 L 171.00 84.34 L 171.00 112.00 L 185.03 112.00 C204.52,112.00 206.82,110.81 209.97,99.12 C212.05,91.39 213.27,95.71 213.39,111.19 C213.50,125.18 212.58,135.00 211.17,135.00 C210.79,135.00 209.67,132.75 208.69,129.99 C205.92,122.20 204.29,121.56 186.30,121.16 L 171.00 120.82 L 171.00 143.94 C171.00,171.11 171.38,172.75 178.44,176.18 C180.95,177.40 183.00,178.76 183.00,179.20 C183.00,179.64 173.01,180.00 160.80,180.00 C145.22,180.00 138.91,179.69 139.66,178.94 ZM 242.00 179.08 C242.00,178.56 242.90,177.85 244.01,177.50 C245.11,177.15 247.33,175.75 248.94,174.40 C253.88,170.24 254.18,166.30 253.82,111.24 C253.46,55.27 253.67,56.86 246.05,53.34 C243.85,52.33 242.04,51.16 242.03,50.75 C242.01,50.34 251.79,50.02 263.75,50.04 L 285.50 50.09 L 282.00 51.95 C280.08,52.97 277.38,55.01 276.00,56.48 L 273.50 59.16 L 273.23 115.58 L 272.95 172.00 L 284.23 171.98 C310.28,171.93 317.69,168.71 324.91,154.25 C326.62,150.81 328.54,148.00 329.16,148.00 C330.69,148.00 329.55,162.08 327.22,172.00 L 325.45 179.50 L 283.73 179.76 C258.05,179.92 242.00,179.66 242.00,179.08 ZM 477.00 179.07 C477.00,178.55 477.93,177.84 479.07,177.48 C480.20,177.12 482.65,175.49 484.51,173.86 C489.97,169.06 490.18,166.51 489.82,110.45 C489.46,53.78 489.87,56.60 481.31,52.81 C473.17,49.21 476.75,48.75 508.66,49.26 C540.57,49.77 545.97,50.49 556.11,55.58 C562.78,58.92 566.20,62.13 569.54,68.17 C572.29,73.12 572.50,74.25 572.50,84.00 C572.50,96.03 571.03,99.97 563.88,107.12 C559.61,111.39 549.04,117.00 545.25,117.00 C544.01,117.00 543.00,117.18 543.00,117.39 C543.00,118.23 561.82,149.84 565.98,156.00 C572.37,165.43 580.23,173.30 585.98,175.99 C588.74,177.28 591.00,178.77 591.00,179.28 C591.00,179.84 586.79,180.06 580.75,179.81 C561.05,179.02 554.63,173.54 533.50,139.50 C523.55,123.46 521.06,120.47 515.50,117.90 C508.04,114.44 508.44,112.89 509.00,142.75 C509.56,172.96 509.48,172.63 517.25,176.60 C519.86,177.94 522.00,179.25 522.00,179.52 C522.00,179.78 511.88,180.00 499.50,180.00 C486.25,180.00 477.00,179.62 477.00,179.07 ZM 536.31 109.93 C543.01,108.23 548.17,104.13 551.33,97.99 C553.89,93.01 554.12,91.75 553.75,84.50 C553.27,74.96 551.00,69.87 544.92,64.66 C539.64,60.14 533.46,58.00 524.00,57.40 C519.88,57.15 514.81,56.77 512.75,56.56 L 509.00 56.19 L 509.00 83.60 L 509.00 111.00 L 520.56 111.00 C526.91,111.00 534.00,110.52 536.31,109.93 ZM 604.00 179.15 C604.00,178.69 605.79,177.50 607.98,176.51 C615.87,172.95 615.47,176.13 615.76,115.50 C616.02,63.22 615.97,61.40 614.05,58.29 C612.97,56.53 610.15,54.05 607.79,52.79 L 603.50 50.50 L 614.19 50.22 C620.08,50.06 629.98,50.06 636.19,50.22 L 647.50 50.50 L 643.56 52.50 C641.40,53.60 638.70,55.77 637.56,57.32 C635.54,60.09 635.50,61.16 635.50,114.32 C635.50,165.99 635.59,168.65 637.42,171.68 C638.48,173.42 641.09,175.64 643.22,176.60 C645.35,177.56 647.33,178.72 647.61,179.17 C647.89,179.63 638.19,180.00 626.06,180.00 C613.93,180.00 604.00,179.62 604.00,179.15 ZM 659.00 178.22 C664.14,174.76 668.04,169.43 671.53,161.09 C675.12,152.52 693.25,99.03 702.97,68.30 L 708.10 52.09 L 716.44 49.55 C721.03,48.15 725.02,47.00 725.29,47.00 C725.57,47.00 726.96,50.26 728.37,54.25 C729.79,58.24 734.60,71.85 739.07,84.50 C763.46,153.57 771.95,172.96 779.58,177.04 C780.91,177.75 782.00,178.71 782.00,179.17 C782.00,179.63 771.65,180.00 759.00,180.00 C746.35,180.00 736.00,179.60 736.00,179.12 C736.00,178.64 737.37,177.68 739.03,176.99 C748.09,173.24 748.28,164.78 739.83,142.75 L 736.85 135.00 L 712.97 135.00 L 689.09 135.00 L 686.14 144.25 C678.95,166.74 679.53,173.85 688.81,177.09 C690.57,177.70 692.00,178.60 692.00,179.10 C692.00,179.60 684.17,179.98 674.25,179.95 C657.29,179.90 656.61,179.82 659.00,178.22 ZM 731.58 119.75 C730.29,116.31 725.52,103.25 720.98,90.73 C716.43,78.20 712.59,68.08 712.43,68.23 C712.28,68.38 710.14,74.36 707.67,81.50 C705.21,88.65 700.69,101.59 697.64,110.25 L 692.08 126.00 L 713.00 126.00 L 733.91 126.00 L 731.58 119.75 Z" fill="rgba(0,0,0,1)"/>
</g>
</svg>